{
  "accessors": [
    {
      "bufferView": 2,
      "componentType": 5126,
      "count": 22746,
      "max": [
        143.76876831054688,
        68.31298065185547,
        284.2843933105469
      ],
      "min": [
        -143.76876831054688,
        -66.42936706542969,
        -1.6671271030332946e-09
      ],
      "type": "VEC3"
    },
    {
      "bufferView": 2,
      "byteOffset": 272952,
      "componentType": 5126,
      "count": 22746,
      "max": [
        1.0,
        1.0,
        1.0
      ],
      "min": [
        -1.0,
        -1.0,
        -1.0
      ],
      "type": "VEC3"
    },
    {
      "bufferView": 1,
      "componentType": 5126,
      "count": 22746,
      "max": [
        7.997241020202637,
        5.222238063812256
      ],
      "min": [
        0.00200003944337368,
        0.001999674364924431
      ],
      "type": "VEC2"
    },
    {
      "bufferView": 0,
      "componentType": 5125,
      "count": 133824,
      "type": "SCALAR"
    },
    {
      "bufferView": 2,
      "byteOffset": 545904,
      "componentType": 5126,
      "count": 1216,
      "max": [
        136.6663360595703,
        120.47344970703125,
        43.543052673339844
      ],
      "min": [
        -136.76463317871094,
        -122.12032318115234,
        0.0
      ],
      "type": "VEC3"
    },
    {
      "bufferView": 2,
      "byteOffset": 560496,
      "componentType": 5126,
      "count": 1216,
      "max": [
        1.0,
        0.999474823474884,
        1.0
      ],
      "min": [
        -1.0,
        -1.0,
        -1.0
      ],
      "type": "VEC3"
    },
    {
      "bufferView": 1,
      "byteOffset": 181968,
      "componentType": 5126,
      "count": 1216,
      "max": [
        1.3818910121917725,
        1.281362533569336
      ],
      "min": [
        -0.38189125061035156,
        -0.2701408863067627
      ],
      "type": "VEC2"
    },
    {
      "bufferView": 0,
      "byteOffset": 535296,
      "componentType": 5125,
      "count": 6336,
      "type": "SCALAR"
    },
    {
      "bufferView": 2,
      "byteOffset": 575088,
      "componentType": 5126,
      "count": 4862,
      "max": [
        139.915771484375,
        130.6266326904297,
        173.15478515625
      ],
      "min": [
        -139.915771484375,
        -133.38192749023438,
        0.0
      ],
      "type": "VEC3"
    },
    {
      "bufferView": 2,
      "byteOffset": 633432,
      "componentType": 5126,
      "count": 4862,
      "max": [
        1.0,
        0.9999487400054932,
        1.0
      ],
      "min": [
        -1.0,
        -1.0,
        -1.0
      ],
      "type": "VEC3"
    },
    {
      "bufferView": 1,
      "byteOffset": 191696,
      "componentType": 5126,
      "count": 4862,
      "max": [
        3.8552699089050293,
        5.232264041900635
      ],
      "min": [
        0.0020001213997602463,
        0.0019988808780908585
      ],
      "type": "VEC2"
    },
    {
      "bufferView": 0,
      "byteOffset": 560640,
      "componentType": 5125,
      "count": 28032,
      "type": "SCALAR"
    }
  ],
  "asset": {
    "extras": {
      "author": "Jack John (https://sketchfab.com/li82545683)",
      "license": "CC-BY-4.0 (http://creativecommons.org/licenses/by/4.0/)",
      "source": "https://sketchfab.com/3d-models/lounge-chair-e990524d30ef4e9682427b6a37c7d05d",
      "title": "Lounge chair"
    },
    "generator": "Sketchfab-14.64.0",
    "version": "2.0"
  },
  "bufferViews": [
    {
      "buffer": 0,
      "byteLength": 672768,
      "name": "floatBufferViews",
      "target": 34963
    },
    {
      "buffer": 0,
      "byteLength": 230592,
      "byteOffset": 672768,
      "byteStride": 8,
      "name": "floatBufferViews",
      "target": 34962
    },
    {
      "buffer": 0,
      "byteLength": 691776,
      "byteOffset": 903360,
      "byteStride": 12,
      "name": "floatBufferViews",
      "target": 34962
    }
  ],
  "buffers": [
    {
      "byteLength": 1595136,
      "uri": "scene.bin"
    }
  ],
  "extensionsUsed": [
    "KHR_texture_transform",
    "KHR_materials_specular"
  ],
  "images": [
    {
      "uri": "textures/Material_14_baseColor.jpeg"
    }
  ],
  "materials": [
    {
      "doubleSided": true,
      "extensions": {
        "KHR_materials_specular": {
          "specularColorFactor": [
            1.0,
            1.0,
            1.0
          ],
          "specularFactor": 0.518007662835249
        }
      },
      "name": "Material_14",
      "pbrMetallicRoughness": {
        "baseColorTexture": {
          "extensions": {
            "KHR_texture_transform": {
              "scale": [
                2.0000000000000027,
                2.0000000000000027
              ]
            }
          },
          "index": 0
        },
        "metallicFactor": 0.05210727969348659,
        "roughnessFactor": 0.6
      }
    }
  ],
  "meshes": [
    {
      "name": "Box023_Material #14_0",
      "primitives": [
        {
          "attributes": {
            "NORMAL": 1,
            "POSITION": 0,
            "TEXCOORD_0": 2
          },
          "indices": 3,
          "material": 0,
          "mode": 4
        }
      ]
    },
    {
      "name": "Box024_Material #14_0",
      "primitives": [
        {
          "attributes": {
            "NORMAL": 5,
            "POSITION": 4,
            "TEXCOORD_0": 6
          },
          "indices": 7,
          "material": 0,
          "mode": 4
        }
      ]
    },
    {
      "name": "Box025_Material #14_0",
      "primitives": [
        {
          "attributes": {
            "NORMAL": 9,
            "POSITION": 8,
            "TEXCOORD_0": 10
          },
          "indices": 11,
          "material": 0,
          "mode": 4
        }
      ]
    }
  ],
  "nodes": [
    {
      "children": [
        1
      ],
      "matrix": [
        1.1465421915054321,
        0.0,
        0.0,
        0.0,
        0.0,
        2.5458350794270326e-16,
        -1.1465421915054321,
        0.0,
        0.0,
        1.1465421915054321,
        2.5458350794270326e-16,
        0.0,
        0.0,
        0.0,
        0.0,
        1.0
      ],
      "name": "Sketchfab_model"
    },
    {
      "children": [
        2
      ],
      "matrix": [
        0.0010000000474974513,
        0.0,
        0.0,
        0.0,
        0.0,
        0.0,
        0.0010000000474974513,
        0.0,
        0.0,
        -0.0010000000474974513,
        0.0,
        0.0,
        0.0,
        0.0,
        0.0,
        1.0
      ],
      "name": "cd3bd5f34e9b468a80d9f6763db9f189.fbx"
    },
    {
      "children": [
        3
      ],
      "name": "RootNode"
    },
    {
      "children": [
        4,
        6,
        8
      ],
      "matrix": [
        1.0,
        0.0,
        0.0,
        0.0,
        0.0,
        2.220446049250313e-16,
        -1.0,
        0.0,
        0.0,
        1.0,
        2.220446049250313e-16,
        0.0,
        -26.265716552734375,
        364.09423828125,
        51.439453125,
        1.0
      ],
      "name": "Group003"
    },
    {
      "children": [
        5
      ],
      "matrix": [
        2.5593416690826416,
        0.0,
        0.0,
        0.0,
        0.0,
        2.5593416690826416,
        0.0,
        0.0,
        0.0,
        0.0,
        2.5593416690826416,
        0.0,
        -1.1444091796875e-05,
        246.64089965820313,
        -363.7904357910156,
        1.0
      ],
      "name": "Box023"
    },
    {
      "mesh": 0,
      "name": "Box023_Material #14_0"
    },
    {
      "children": [
        7
      ],
      "matrix": [
        1.8713425397872925,
        0.0,
        0.0,
        0.0,
        0.0,
        1.8713425397872925,
        0.0,
        0.0,
        0.0,
        0.0,
        1.8713425397872925,
        0.0,
        -2.132823944091797,
        -140.48007202148438,
        -363.7904357910156,
        1.0
      ],
      "name": "Box024"
    },
    {
      "mesh": 1,
      "name": "Box024_Material #14_0"
    },
    {
      "children": [
        9
      ],
      "matrix": [
        2.106710433959961,
        0.0,
        0.0,
        0.0,
        0.0,
        2.106710433959961,
        0.0,
        0.0,
        0.0,
        0.0,
        2.106710433959961,
        0.0,
        -2.132823944091797,
        -140.48007202148438,
        -292.9338684082031,
        1.0
      ],
      "name": "Box025"
    },
    {
      "mesh": 2,
      "name": "Box025_Material #14_0"
    }
  ],
  "samplers": [
    {
      "magFilter": 9729,
      "minFilter": 9987,
      "wrapS": 10497,
      "wrapT": 10497
    }
  ],
  "scene": 0,
  "scenes": [
    {
      "name": "Sketchfab_Scene",
      "nodes": [
        0
      ]
    }
  ],
  "textures": [
    {
      "sampler": 0,
      "source": 0
    }
  ]
}
