{
	"asset":{
		"generator":"Khronos glTF Blender I/O v3.5.30",
		"version":"2.0"
	},
	"scene":0,
	"scenes":[
		{
			"name":"Scene",
			"nodes":[
				0
			]
		}
	],
	"nodes":[
		{
			"mesh":0,
			"name":"Cube.004",
			"scale":[
				0.4701327085494995,
				1.0123052597045898,
				1.9870383739471436
			],
			"translation":[
				46.343563079833984,
				10.081265449523926,
				-6.027669906616211
			]
		}
	],
	"meshes":[
		{
			"name":"Cube.012",
			"primitives":[
				{
					"attributes":{
						"POSITION":0,
						"TEXCOORD_0":1,
						"NORMAL":2
					},
					"indices":3
				}
			]
		}
	],
	"accessors":[
		{
			"bufferView":0,
			"componentType":5126,
			"count":238,
			"max":[
				0.9890441298484802,
				9.770625114440918,
				13.148122787475586
			],
			"min":[
				-202.41671752929688,
				-9.921893119812012,
				-6.437402725219727
			],
			"type":"VEC3"
		},
		{
			"bufferView":1,
			"componentType":5126,
			"count":238,
			"type":"VEC2"
		},
		{
			"bufferView":2,
			"componentType":5126,
			"count":238,
			"type":"VEC3"
		},
		{
			"bufferView":3,
			"componentType":5123,
			"count":462,
			"type":"SCALAR"
		}
	],
	"bufferViews":[
		{
			"buffer":0,
			"byteLength":2856,
			"byteOffset":0,
			"target":34962
		},
		{
			"buffer":0,
			"byteLength":1904,
			"byteOffset":2856,
			"target":34962
		},
		{
			"buffer":0,
			"byteLength":2856,
			"byteOffset":4760,
			"target":34962
		},
		{
			"buffer":0,
			"byteLength":924,
			"byteOffset":7616,
			"target":34963
		}
	],
	"buffers":[
		{
			"byteLength":8540,
			"uri":"data:application/octet-stream;base64,"
		}
	]
}
