{
  "accessors": [
    {
      "bufferView": 2,
      "componentType": 5126,
      "count": 11457,
      "max": [
        1.2314043045043945,
        0.7211690545082092,
        0.5922167897224426
      ],
      "min": [
        -1.2505621910095215,
        -1.8836369514465332,
        -0.8452910780906677
      ],
      "type": "VEC3"
    },
    {
      "bufferView": 2,
      "byteOffset": 137484,
      "componentType": 5126,
      "count": 11457,
      "max": [
        0.9998924732208252,
        0.9999149441719055,
        0.9999367594718933
      ],
      "min": [
        -0.999650239944458,
        -0.999998927116394,
        -0.9999042749404907
      ],
      "type": "VEC3"
    },
    {
      "bufferView": 1,
      "componentType": 5126,
      "count": 11457,
      "max": [
        0.9903923869132996,
        0.9941644668579102
      ],
      "min": [
        0.004850864410400391,
        0.011009275913238525
      ],
      "type": "VEC2"
    },
    {
      "bufferView": 0,
      "componentType": 5125,
      "count": 64104,
      "type": "SCALAR"
    },
    {
      "bufferView": 2,
      "byteOffset": 274968,
      "componentType": 5126,
      "count": 366,
      "max": [
        0.22063881158828735,
        0.1608736515045166,
        0.6700471639633179
      ],
      "min": [
        -0.2206556349992752,
        -0.26274195313453674,
        0.35503146052360535
      ],
      "type": "VEC3"
    },
    {
      "bufferView": 2,
      "byteOffset": 279360,
      "componentType": 5126,
      "count": 366,
      "max": [
        0.9910410642623901,
        0.9991332292556763,
        0.9992120265960693
      ],
      "min": [
        -0.9904629588127136,
        -0.9999575614929199,
        -0.996467113494873
      ],
      "type": "VEC3"
    },
    {
      "bufferView": 1,
      "byteOffset": 91656,
      "componentType": 5126,
      "count": 366,
      "max": [
        0.07096284627914429,
        0.18766576051712036
      ],
      "min": [
        0.006067156791687012,
        0.09562700241804123
      ],
      "type": "VEC2"
    },
    {
      "bufferView": 0,
      "byteOffset": 256416,
      "componentType": 5125,
      "count": 2028,
      "type": "SCALAR"
    },
    {
      "bufferView": 2,
      "byteOffset": 283752,
      "componentType": 5126,
      "count": 917,
      "max": [
        0.7805559635162354,
        -1.7634878158569336,
        0.1653641313314438
      ],
      "min": [
        -0.7816345691680908,
        -1.8475663661956787,
        -0.195865660905838
      ],
      "type": "VEC3"
    },
    {
      "bufferView": 2,
      "byteOffset": 294756,
      "componentType": 5126,
      "count": 917,
      "max": [
        0.9999808073043823,
        0.9942371249198914,
        0.9962170124053955
      ],
      "min": [
        -0.9998270869255066,
        -0.9868052005767822,
        -0.9986823797225952
      ],
      "type": "VEC3"
    },
    {
      "bufferView": 1,
      "byteOffset": 94584,
      "componentType": 5126,
      "count": 917,
      "max": [
        0.4239386320114136,
        0.987604022026062
      ],
      "min": [
        0.2549319267272949,
        0.9109781384468079
      ],
      "type": "VEC2"
    },
    {
      "bufferView": 0,
      "byteOffset": 264528,
      "componentType": 5125,
      "count": 5034,
      "type": "SCALAR"
    },
    {
      "bufferView": 2,
      "byteOffset": 305760,
      "componentType": 5126,
      "count": 1066,
      "max": [
        0.5637287497520447,
        0.13746434450149536,
        0.4721195101737976
      ],
      "min": [
        -0.5521243214607239,
        -0.2057471126317978,
        0.12607768177986145
      ],
      "type": "VEC3"
    },
    {
      "bufferView": 2,
      "byteOffset": 318552,
      "componentType": 5126,
      "count": 1066,
      "max": [
        0.9994246363639832,
        0.9963764548301697,
        0.9980840086936951
      ],
      "min": [
        -0.9988305568695068,
        -0.9999884366989136,
        -0.9968381524085999
      ],
      "type": "VEC3"
    },
    {
      "bufferView": 1,
      "byteOffset": 101920,
      "componentType": 5126,
      "count": 1066,
      "max": [
        0.988166093826294,
        0.7679849863052368
      ],
      "min": [
        0.4845774173736572,
        0.29694563150405884
      ],
      "type": "VEC2"
    },
    {
      "bufferView": 0,
      "byteOffset": 284664,
      "componentType": 5125,
      "count": 6096,
      "type": "SCALAR"
    },
    {
      "bufferView": 2,
      "byteOffset": 331344,
      "componentType": 5126,
      "count": 2271,
      "max": [
        0.46413227915763855,
        -0.2250785082578659,
        0.5284648537635803
      ],
      "min": [
        -0.46413227915763855,
        -0.5766069293022156,
        0.031100047752261162
      ],
      "type": "VEC3"
    },
    {
      "bufferView": 2,
      "byteOffset": 358596,
      "componentType": 5126,
      "count": 2271,
      "max": [
        0.9988793730735779,
        0.9998624920845032,
        0.995819091796875
      ],
      "min": [
        -0.9988793730735779,
        -0.9997840523719788,
        -0.9959867000579834
      ],
      "type": "VEC3"
    },
    {
      "bufferView": 1,
      "byteOffset": 110448,
      "componentType": 5126,
      "count": 2271,
      "max": [
        0.6928657293319702,
        0.9965754151344299
      ],
      "min": [
        0.12422144412994385,
        0.03830313682556152
      ],
      "type": "VEC2"
    },
    {
      "bufferView": 0,
      "byteOffset": 309048,
      "componentType": 5125,
      "count": 12684,
      "type": "SCALAR"
    },
    {
      "bufferView": 2,
      "byteOffset": 385848,
      "componentType": 5126,
      "count": 296,
      "max": [
        0.2976597845554352,
        -0.33490654826164246,
        0.23978738486766815
      ],
      "min": [
        -0.29745668172836304,
        -0.5150805115699768,
        -0.32485896348953247
      ],
      "type": "VEC3"
    },
    {
      "bufferView": 2,
      "byteOffset": 389400,
      "componentType": 5126,
      "count": 296,
      "max": [
        0.9514050483703613,
        0.9999995827674866,
        0.9807435870170593
      ],
      "min": [
        -0.9518666863441467,
        -0.9999746084213257,
        -0.9982519745826721
      ],
      "type": "VEC3"
    },
    {
      "bufferView": 1,
      "byteOffset": 128616,
      "componentType": 5126,
      "count": 296,
      "max": [
        0.08081574738025665,
        0.3582620322704315
      ],
      "min": [
        0.005181074142456055,
        0.26233965158462524
      ],
      "type": "VEC2"
    },
    {
      "bufferView": 0,
      "byteOffset": 359784,
      "componentType": 5125,
      "count": 1656,
      "type": "SCALAR"
    },
    {
      "bufferView": 2,
      "byteOffset": 392952,
      "componentType": 5126,
      "count": 1064,
      "max": [
        1.2585023641586304,
        -0.5911831855773926,
        0.21542967855930328
      ],
      "min": [
        -1.2589917182922363,
        -0.9884073138237,
        -0.02274816855788231
      ],
      "type": "VEC3"
    },
    {
      "bufferView": 2,
      "byteOffset": 405720,
      "componentType": 5126,
      "count": 1064,
      "max": [
        0.9999853372573853,
        0.9981319308280945,
        0.9710609912872314
      ],
      "min": [
        -0.9984147548675537,
        -0.9999563694000244,
        -0.9684404730796814
      ],
      "type": "VEC3"
    },
    {
      "bufferView": 1,
      "byteOffset": 130984,
      "componentType": 5126,
      "count": 1064,
      "max": [
        0.28134623169898987,
        0.8137245774269104
      ],
      "min": [
        0.008135735988616943,
        0.3758232295513153
      ],
      "type": "VEC2"
    },
    {
      "bufferView": 0,
      "byteOffset": 366408,
      "componentType": 5125,
      "count": 5628,
      "type": "SCALAR"
    }
  ],
  "asset": {
    "extras": {
      "author": "eloiriel (https://sketchfab.com/eloiriel)",
      "license": "CC-BY-4.0 (http://creativecommons.org/licenses/by/4.0/)",
      "source": "https://sketchfab.com/3d-models/stitch-low-poly-d630fdc8b7e64920883d03b5bdf75ccb",
      "title": "Stitch Low-Poly"
    },
    "generator": "Sketchfab-12.65.0",
    "version": "2.0"
  },
  "bufferViews": [
    {
      "buffer": 0,
      "byteLength": 388920,
      "name": "floatBufferViews",
      "target": 34963
    },
    {
      "buffer": 0,
      "byteLength": 139496,
      "byteOffset": 388920,
      "byteStride": 8,
      "name": "floatBufferViews",
      "target": 34962
    },
    {
      "buffer": 0,
      "byteLength": 418488,
      "byteOffset": 528416,
      "byteStride": 12,
      "name": "floatBufferViews",
      "target": 34962
    }
  ],
  "buffers": [
    {
      "byteLength": 946904,
      "uri": "scene.bin"
    }
  ],
  "images": [
    {
      "uri": "textures/Retopo_Corps_baseColor.png"
    }
  ],
  "materials": [
    {
      "doubleSided": true,
      "name": "Retopo_Corps",
      "pbrMetallicRoughness": {
        "baseColorTexture": {
          "index": 0
        },
        "metallicFactor": 0.0,
        "roughnessFactor": 0.6
      }
    },
    {
      "doubleSided": true,
      "name": "Nez_Retopo",
      "pbrMetallicRoughness": {
        "baseColorTexture": {
          "index": 0
        },
        "metallicFactor": 0.0,
        "roughnessFactor": 0.6
      }
    },
    {
      "doubleSided": true,
      "name": "Orteils_Retopo",
      "pbrMetallicRoughness": {
        "baseColorTexture": {
          "index": 0
        },
        "metallicFactor": 0.0,
        "roughnessFactor": 0.6
      }
    },
    {
      "doubleSided": true,
      "name": "Yeux_Retopo",
      "pbrMetallicRoughness": {
        "baseColorTexture": {
          "index": 0
        },
        "metallicFactor": 0.0,
        "roughnessFactor": 0.6
      }
    },
    {
      "doubleSided": true,
      "name": "Dents_Retopo",
      "pbrMetallicRoughness": {
        "baseColorTexture": {
          "index": 0
        },
        "metallicFactor": 0.0,
        "roughnessFactor": 0.6
      }
    },
    {
      "doubleSided": true,
      "name": "Langue_Retopo",
      "pbrMetallicRoughness": {
        "baseColorTexture": {
          "index": 0
        },
        "metallicFactor": 0.0,
        "roughnessFactor": 0.6
      }
    },
    {
      "doubleSided": true,
      "name": "Griffes_Retopo",
      "pbrMetallicRoughness": {
        "baseColorTexture": {
          "index": 0
        },
        "metallicFactor": 0.0,
        "roughnessFactor": 0.6
      }
    }
  ],
  "meshes": [
    {
      "name": "Retopo_Corps_Retopo_Corps_0",
      "primitives": [
        {
          "attributes": {
            "NORMAL": 1,
            "POSITION": 0,
            "TEXCOORD_0": 2
          },
          "indices": 3,
          "material": 0,
          "mode": 4
        }
      ]
    },
    {
      "name": "Nez_Retopo_Nez_Retopo_0",
      "primitives": [
        {
          "attributes": {
            "NORMAL": 5,
            "POSITION": 4,
            "TEXCOORD_0": 6
          },
          "indices": 7,
          "material": 1,
          "mode": 4
        }
      ]
    },
    {
      "name": "Orteils_Retopo_Orteils_Retopo_0",
      "primitives": [
        {
          "attributes": {
            "NORMAL": 9,
            "POSITION": 8,
            "TEXCOORD_0": 10
          },
          "indices": 11,
          "material": 2,
          "mode": 4
        }
      ]
    },
    {
      "name": "Yeux_Retopo_Yeux_Retopo_0",
      "primitives": [
        {
          "attributes": {
            "NORMAL": 13,
            "POSITION": 12,
            "TEXCOORD_0": 14
          },
          "indices": 15,
          "material": 3,
          "mode": 4
        }
      ]
    },
    {
      "name": "Dents_Retopo_Dents_Retopo_0",
      "primitives": [
        {
          "attributes": {
            "NORMAL": 17,
            "POSITION": 16,
            "TEXCOORD_0": 18
          },
          "indices": 19,
          "material": 4,
          "mode": 4
        }
      ]
    },
    {
      "name": "Langue_Retopo_Langue_Retopo_0",
      "primitives": [
        {
          "attributes": {
            "NORMAL": 21,
            "POSITION": 20,
            "TEXCOORD_0": 22
          },
          "indices": 23,
          "material": 5,
          "mode": 4
        }
      ]
    },
    {
      "name": "Griffes_Retopo_Griffes_Retopo_0",
      "primitives": [
        {
          "attributes": {
            "NORMAL": 25,
            "POSITION": 24,
            "TEXCOORD_0": 26
          },
          "indices": 27,
          "material": 6,
          "mode": 4
        }
      ]
    }
  ],
  "nodes": [
    {
      "children": [
        1
      ],
      "matrix": [
        1.0,
        0.0,
        0.0,
        0.0,
        0.0,
        2.220446049250313e-16,
        -1.0,
        0.0,
        0.0,
        1.0,
        2.220446049250313e-16,
        0.0,
        0.0,
        0.0,
        0.0,
        1.0
      ],
      "name": "Sketchfab_model"
    },
    {
      "children": [
        2
      ],
      "matrix": [
        1.0,
        0.0,
        0.0,
        0.0,
        0.0,
        0.0,
        1.0,
        0.0,
        0.0,
        -1.0,
        0.0,
        0.0,
        0.0,
        0.0,
        0.0,
        1.0
      ],
      "name": "ddaa3096a29c48ba9e3bc58777e5f397.fbx"
    },
    {
      "children": [
        3,
        5,
        7,
        9,
        11,
        13,
        15
      ],
      "name": "RootNode"
    },
    {
      "children": [
        4
      ],
      "name": "Retopo_Corps"
    },
    {
      "mesh": 0,
      "name": "Retopo_Corps_Retopo_Corps_0"
    },
    {
      "children": [
        6
      ],
      "name": "Nez_Retopo"
    },
    {
      "mesh": 1,
      "name": "Nez_Retopo_Nez_Retopo_0"
    },
    {
      "children": [
        8
      ],
      "name": "Orteils_Retopo"
    },
    {
      "mesh": 2,
      "name": "Orteils_Retopo_Orteils_Retopo_0"
    },
    {
      "children": [
        10
      ],
      "name": "Yeux_Retopo"
    },
    {
      "mesh": 3,
      "name": "Yeux_Retopo_Yeux_Retopo_0"
    },
    {
      "children": [
        12
      ],
      "name": "Dents_Retopo"
    },
    {
      "mesh": 4,
      "name": "Dents_Retopo_Dents_Retopo_0"
    },
    {
      "children": [
        14
      ],
      "name": "Langue_Retopo"
    },
    {
      "mesh": 5,
      "name": "Langue_Retopo_Langue_Retopo_0"
    },
    {
      "children": [
        16
      ],
      "name": "Griffes_Retopo"
    },
    {
      "mesh": 6,
      "name": "Griffes_Retopo_Griffes_Retopo_0"
    }
  ],
  "samplers": [
    {
      "magFilter": 9729,
      "minFilter": 9987,
      "wrapS": 10497,
      "wrapT": 10497
    }
  ],
  "scene": 0,
  "scenes": [
    {
      "name": "Sketchfab_Scene",
      "nodes": [
        0
      ]
    }
  ],
  "textures": [
    {
      "sampler": 0,
      "source": 0
    }
  ]
}
